<svg xmlns="http://www.w3.org/2000/svg" viewBox="0 0 800 1040" width="800" height="1040">
  <defs>
    <filter id="glow">
      <feGaussianBlur in="SourceGraphic" stdDeviation="8" result="blur"/>
      <feColorMatrix in="blur" type="matrix" values="1 0 0 0 0  0 1 0 0 0  0 0 1 0 0  0 0 0 18 -7" result="glow"/>
      <feMerge><feMergeNode in="glow"/><feMergeNode in="SourceGraphic"/></feMerge>
    </filter>
    <filter id="soft"><feGaussianBlur stdDeviation="3"/></filter>
    <filter id="blur2"><feGaussianBlur stdDeviation="12"/></filter>
  </defs>
  
  <!-- Background -->
  <defs>
    <radialGradient id="bg1" cx="50%" cy="30%" r="70%">
      <stop offset="0%" stop-color="#2a1208"/>
      <stop offset="60%" stop-color="#180d07"/>
      <stop offset="100%" stop-color="#080705"/>
    </radialGradient>
    <radialGradient id="spot" cx="50%" cy="15%" r="50%">
      <stop offset="0%" stop-color="rgba(194,139,54,0.18)"/>
      <stop offset="100%" stop-color="rgba(194,139,54,0)"/>
    </radialGradient>
  </defs>
  <rect width="800" height="1040" fill="url(#bg1)"/>
  <rect width="800" height="1040" fill="url(#spot)"/>

  <!-- Stage floor line -->
  <line x1="0" y1="800" x2="800" y2="800" stroke="rgba(194,139,54,0.15)" stroke-width="1"/>
  <line x1="0" y1="802" x2="800" y2="802" stroke="rgba(194,139,54,0.06)" stroke-width="1"/>

  <!-- Spotlight beams from top -->
  <polygon points="380,0 240,800 320,800" fill="rgba(194,139,54,0.04)" filter="url(#soft)"/>
  <polygon points="420,0 480,800 560,800" fill="rgba(158,55,16,0.05)" filter="url(#soft)"/>
  <polygon points="400,0 370,800 430,800" fill="rgba(194,139,54,0.07)" filter="url(#soft)"/>

  <!-- Dancer silhouette — abstract figure in movement -->
  <!-- Body torso (elongated ellipse, tilted) -->
  <ellipse cx="400" cy="480" rx="32" ry="90" transform="rotate(-8 400 480)" fill="rgba(194,139,54,0.08)" stroke="rgba(194,139,54,0.35)" stroke-width="1.2"/>
  <!-- Head -->
  <circle cx="393" cy="355" r="28" fill="rgba(194,139,54,0.06)" stroke="rgba(194,139,54,0.4)" stroke-width="1"/>
  <!-- Arms — one raised -->
  <path d="M380,410 C340,360 290,320 260,275" stroke="rgba(194,139,54,0.5)" stroke-width="2" fill="none" stroke-linecap="round"/>
  <path d="M415,420 C455,450 500,460 540,440" stroke="rgba(194,139,54,0.35)" stroke-width="1.8" fill="none" stroke-linecap="round"/>
  <!-- Legs — in arabesque -->
  <path d="M385,560 C375,620 360,680 340,760" stroke="rgba(194,139,54,0.45)" stroke-width="1.8" fill="none" stroke-linecap="round"/>
  <path d="M415,560 C450,600 510,620 580,600" stroke="rgba(194,139,54,0.4)" stroke-width="1.8" fill="none" stroke-linecap="round"/>
  <!-- Foot on floor -->
  <ellipse cx="341" cy="763" rx="8" ry="3" fill="rgba(194,139,54,0.3)"/>

  <!-- Light halo around dancer -->
  <circle cx="400" cy="490" r="120" fill="rgba(194,139,54,0.04)" filter="url(#blur2)"/>

  <!-- Subtle decorative lines - theatre ropes/curtain hint -->
  <line x1="100" y1="0" x2="90" y2="800" stroke="rgba(194,139,54,0.08)" stroke-width="1"/>
  <line x1="700" y1="0" x2="710" y2="800" stroke="rgba(194,139,54,0.08)" stroke-width="1"/>

  <!-- Label -->
  <text x="400" y="950" text-anchor="middle" font-family="Georgia,serif" font-size="13" font-weight="300" letter-spacing="4" fill="rgba(194,139,54,0.6)" font-style="italic">En scène</text>
  <text x="400" y="972" text-anchor="middle" font-family="Arial,sans-serif" font-size="9" letter-spacing="3" fill="rgba(194,139,54,0.35)" transform="uppercase">SPECTACLE VIVANT · CRÉATION</text>

</svg>