<svg xmlns="http://www.w3.org/2000/svg" viewBox="0 0 800 520" width="800" height="520">
  <defs>
    <filter id="glow">
      <feGaussianBlur in="SourceGraphic" stdDeviation="8" result="blur"/>
      <feColorMatrix in="blur" type="matrix" values="1 0 0 0 0  0 1 0 0 0  0 0 1 0 0  0 0 0 18 -7" result="glow"/>
      <feMerge><feMergeNode in="glow"/><feMergeNode in="SourceGraphic"/></feMerge>
    </filter>
    <filter id="soft"><feGaussianBlur stdDeviation="3"/></filter>
    <filter id="blur2"><feGaussianBlur stdDeviation="12"/></filter>
  </defs>
  
  <defs>
    <linearGradient id="bg2" x1="0%" y1="0%" x2="100%" y2="100%">
      <stop offset="0%" stop-color="#0c0b09"/>
      <stop offset="55%" stop-color="#1e1a10"/>
      <stop offset="100%" stop-color="#0d0c09"/>
    </linearGradient>
    <radialGradient id="glow2a" cx="35%" cy="45%" r="40%">
      <stop offset="0%" stop-color="rgba(194,139,54,0.12)"/>
      <stop offset="100%" stop-color="rgba(0,0,0,0)"/>
    </radialGradient>
    <radialGradient id="glow2b" cx="62%" cy="42%" r="35%">
      <stop offset="0%" stop-color="rgba(158,55,16,0.10)"/>
      <stop offset="100%" stop-color="rgba(0,0,0,0)"/>
    </radialGradient>
  </defs>
  <rect width="800" height="520" fill="url(#bg2)"/>
  <rect width="800" height="520" fill="url(#glow2a)"/>
  <rect width="800" height="520" fill="url(#glow2b)"/>

  <!-- Floor line -->
  <line x1="0" y1="420" x2="800" y2="420" stroke="rgba(194,139,54,0.12)" stroke-width="1"/>

  <!-- Figure 1 — left dancer (leaning right) -->
  <circle cx="290" cy="165" r="32" fill="rgba(194,139,54,0.07)" stroke="rgba(194,139,54,0.38)" stroke-width="1.2"/>
  <ellipse cx="300" cy="270" rx="28" ry="75" transform="rotate(15 300 270)" fill="rgba(194,139,54,0.06)" stroke="rgba(194,139,54,0.28)" stroke-width="1"/>
  <path d="M285,215 C320,230 370,250 400,265" stroke="rgba(194,139,54,0.5)" stroke-width="1.8" fill="none" stroke-linecap="round"/>
  <path d="M270,215 C230,220 200,240 175,260" stroke="rgba(194,139,54,0.3)" stroke-width="1.5" fill="none" stroke-linecap="round"/>
  <path d="M290,340 C280,380 265,415 250,420" stroke="rgba(194,139,54,0.4)" stroke-width="1.5" fill="none" stroke-linecap="round"/>
  <path d="M315,335 C340,370 360,395 380,400" stroke="rgba(194,139,54,0.35)" stroke-width="1.5" fill="none" stroke-linecap="round"/>

  <!-- Figure 2 — right dancer (leaning left, merging point of contact) -->
  <circle cx="490" cy="170" r="30" fill="rgba(158,55,16,0.07)" stroke="rgba(158,55,16,0.38)" stroke-width="1.2"/>
  <ellipse cx="480" cy="273" rx="26" ry="72" transform="rotate(-12 480 273)" fill="rgba(158,55,16,0.05)" stroke="rgba(158,55,16,0.25)" stroke-width="1"/>
  <path d="M495,220 C460,235 420,255 400,265" stroke="rgba(158,55,16,0.45)" stroke-width="1.8" fill="none" stroke-linecap="round"/>
  <path d="M500,218 C540,222 570,240 595,255" stroke="rgba(158,55,16,0.3)" stroke-width="1.5" fill="none" stroke-linecap="round"/>
  <path d="M475,338 C465,375 455,408 445,418" stroke="rgba(158,55,16,0.38)" stroke-width="1.5" fill="none" stroke-linecap="round"/>
  <path d="M500,332 C530,360 555,388 570,405" stroke="rgba(158,55,16,0.32)" stroke-width="1.5" fill="none" stroke-linecap="round"/>

  <!-- Contact point — glowing overlap -->
  <circle cx="400" cy="265" r="18" fill="rgba(194,139,54,0.15)" filter="url(#soft)"/>
  <circle cx="400" cy="265" r="6" fill="rgba(194,139,54,0.5)"/>

  <!-- Movement flow lines -->
  <path d="M120,300 C180,250 240,290 290,265" stroke="rgba(194,139,54,0.12)" stroke-width="1" fill="none"/>
  <path d="M510,265 C560,250 620,280 680,240" stroke="rgba(158,55,16,0.12)" stroke-width="1" fill="none"/>

  <!-- Label -->
  <text x="400" y="475" text-anchor="middle" font-family="Georgia,serif" font-size="12" font-weight="300" letter-spacing="4" fill="rgba(194,139,54,0.6)" font-style="italic">Jam de contact</text>
  <text x="400" y="494" text-anchor="middle" font-family="Arial,sans-serif" font-size="8.5" letter-spacing="3" fill="rgba(194,139,54,0.32)">CONTACT-IMPROVISATION · RENCONTRE</text>

</svg>